<?xml version="1.0" encoding="UTF-8"?>
<svg width="460px" height="601px" viewBox="0 0 460 601" version="1.1" xmlns="http://www.w3.org/2000/svg">
	<title>
		qb-vec
	</title>
	<g id="Page-1" stroke="none" stroke-width="1" fill="none" fill-rule="evenodd">
		<g id="Artboard-Copy-4" transform="translate(-67.000000, -60.000000)" fill="#000000" fill-rule="nonzero">
			<g id="layer102" transform="translate(67.000000, 60.000000)">
				<path d="M282.5,598.9 C286.9,598.4 293.1,597.4 296.2,596.8 C302.9,595.6 302.2,596.7 311.8,569.5 C332.4,511 343.4,462.3 347.5,412.1 C349.7,385.2 349.3,352.3 346.4,332.4 L345.8,328.3 L335.2,327.7 C329.3,327.4 317.5,327.4 308.9,327.7 L293.2,328.3 L293.2,340 C293,383.2 268.1,430.3 214.1,489.4 C196.9,508.3 161,542.6 142.5,557.8 L138.5,561.1 L141,563.1 C149.4,569.7 174.4,583 188,588 C197.3,591.4 215.8,596.2 227,598.1 C242.2,600.6 266.4,601 282.5,598.9 Z M325.7,588.9 C358,577.6 390.2,555.4 412.1,529.2 C423.5,515.5 431,503.9 439.5,486.7 L446.9,471.8 L441,460 C425,428 413.1,393.7 403,350.2 C400.9,341.2 399,333.6 398.7,333.3 C398,332.6 379.5,330.3 367.6,329.5 L357.7,328.7 L358.4,334.6 C366.3,405 352.6,493.5 320.6,578.8 C318.1,585.6 316,591.3 316,591.5 C316,592.3 316.4,592.2 325.7,588.9 Z M151.6,534.5 C208.4,483.4 246.6,438.1 266,398.5 C277.2,375.7 280.9,362.5 281.7,342.8 C282.2,329.7 282.2,329 280.4,329 C275.3,329 254.4,331.4 235.9,334 C177.4,342.4 120.2,358.7 66.3,382.2 C57.5,386 57,386.4 56.4,389.8 C55.5,394.5 56.7,416.4 58.5,428.6 C62.8,456.8 74.1,486.3 89.9,510 C98.6,523.1 105,530.7 117.9,543.4 L128.9,554.2 L131.7,552 C133.2,550.8 142.2,542.9 151.6,534.5 Z M453.6,448.9 C458.8,429.6 461.1,400.8 459.1,380.5 C457.3,363.3 453.2,343.9 451,342.5 C449.9,341.8 415.9,335 413.3,335 L411.2,335 L413.1,343.5 C418.4,368 430.3,407.2 438,425.8 C444.2,440.9 451,455.3 451.6,454.7 C451.9,454.4 452.8,451.8 453.6,448.9 Z M64.6,370.4 C122.6,344.6 201.5,324.3 265,318.8 L279.1,317.6 L278.5,315 C277.3,309.4 267.7,292.1 262.2,285.8 C246.6,267.5 219.7,250.4 189.5,239.5 C174.8,234.1 155.2,228 152.9,228 C151.8,228 147.5,230.3 143.4,233 C108.3,256.7 80.3,294.4 66.5,336.4 C61.9,350.2 56.9,373 58.4,373 C58.6,373 61.4,371.8 64.6,370.4 Z M448,329.5 C448,329.2 446.1,324.6 443.7,319.3 C434.3,297.9 420.4,276.7 406,261.7 L399.1,254.5 L399.5,258 C401.6,276 402.6,283.1 405.1,300 C406.8,310.7 408.3,320.2 408.6,321.1 C408.9,322.2 411.3,323 417.3,323.9 C421.8,324.6 430.2,326.2 436,327.5 C448,330.2 448,330.2 448,329.5 Z M394.6,308.8 C392.1,294 387,250.4 387,243.8 C387,242.9 370.6,231 362.5,226.1 C348.7,217.8 318.1,204.6 316.4,206.2 C316.2,206.5 318,210.3 320.6,214.6 C334.6,238.2 346.9,271.2 353,301.8 C354.6,309.7 356.1,316.4 356.3,316.7 C356.6,316.9 362.6,317.6 369.7,318.1 C376.7,318.6 385.4,319.4 389,319.8 C393.9,320.3 395.6,320.2 395.8,319.3 C396,318.6 395.4,313.8 394.6,308.8 Z M343.9,315.4 C344.6,314.8 338.8,290 334.9,277.2 C327.6,253 316.5,228.8 304.5,210.3 C301.5,205.8 298.3,201.7 297.3,201.2 C293.7,199.3 274.1,197.5 257,197.6 C228.6,197.7 205.3,202.3 181,212.6 C164.8,219.4 164.9,219.3 175.5,222.5 C206.9,232.1 235.6,246.6 255.7,263.2 C272.3,277 286.4,298 290.5,315.5 C290.7,316.5 342.8,316.4 343.9,315.4 Z M98.6,230.4 C123.1,224.1 142.4,216.7 171.5,202.5 C200.1,188.4 223.4,173.8 235.7,161.9 C242.5,155.3 242.5,154 235.9,154 C219.9,154 182.1,165.8 150,180.8 C115.5,196.9 72,227.4 75.5,233.1 C76.5,234.6 87,233.4 98.6,230.4 Z M74.8,225 C87.9,210.4 111,194.9 143.5,179 C181.2,160.4 212.5,150.5 236.4,149.6 C241.2,149.4 245.2,149.1 245.4,148.9 C245.5,148.7 246.2,146 246.8,143 C247.5,140 249.2,135.1 250.5,132.1 L253,126.7 L248,120.9 C242,114 241.5,112.6 240,97.5 C238.9,86.5 239,85.9 240.9,83.4 C242.1,81.9 243,79.6 243,78.1 C242.9,74.4 239.5,67.4 237.2,66.1 C235.7,65.3 235.1,63.6 234.6,58.7 C233.5,49.3 233.6,49.3 223.7,51.4 C212.5,53.8 211.8,54.3 215.5,57.2 C220.5,61 227.1,67.3 226.6,67.7 C226.4,67.9 223.5,67.4 220.2,66.6 C216.9,65.7 213.9,65 213.5,65 C212.2,65 213.7,77.2 216,85.8 C217.2,90.3 218.5,94 218.9,94 C219.2,94 220.6,92 221.8,89.6 C223.1,87.2 225.3,84.1 226.6,82.9 C228.7,80.9 229.2,80.8 230,82 C231.6,84.4 231.2,97.7 229.5,101.8 C225.9,110.2 214.8,118 206.2,118 C196,118 186,109.6 186,101 C186,96.3 187.5,94.4 192.4,92.5 C196.7,90.9 197.1,90.9 200.7,92.6 C203.3,93.9 205.2,95.9 206.9,99.3 C209.3,104 209.3,104 210.8,101.8 C213.4,98.2 213.6,89.1 211.2,83.8 C206.4,73 193.1,69.6 184.6,77 C182.7,78.7 181,80 180.7,80 C180.4,80 179.2,76.7 178,72.8 C175.4,64.1 172.4,58.7 167.6,54.1 L164,50.7 L162.4,54.6 C161.5,56.7 160.5,61.7 160.2,65.6 C159.8,71.8 160.1,73.5 162.4,78.5 C163.8,81.7 165,84.4 165,84.6 C165,84.8 162,84.8 158.4,84.7 C151.9,84.5 151.8,84.5 147.9,88.7 C144.5,92.4 144,93.5 144,97.7 C144,104.1 146.6,108.8 152.4,112.8 C155.1,114.5 157.6,116 158.1,116 C158.6,116 158.7,113.6 158.4,110.6 C157.8,105.5 157.9,105 160.5,102.6 C163.5,99.8 168.5,99.2 172.2,101.1 C175.2,102.7 178.3,110.4 177.4,114.3 C175.6,123 169.1,130 160.6,132.5 C150.5,135.5 141.5,133.4 133.9,126.1 C131.2,123.5 129,120.8 129,120.2 C129,118.7 134.2,118.7 139.3,120.1 C141.3,120.6 143.4,120.8 143.9,120.5 C144.5,120.2 142.8,115.6 140.3,110.2 C137.9,104.9 135.2,99 134.5,97.3 C132.6,92.8 130.5,93.9 128.4,100.3 C125.9,108.1 124.7,109.2 123.8,104.4 C123.4,102.3 123.1,97.6 123,94 C123,90.4 122.6,86.9 122.2,86.3 C121.6,85.3 118.4,86.5 109.9,90.5 C103.7,93.5 98.4,96.4 98.2,96.8 C98.1,97.3 101.4,101 105.7,105 C113.9,112.7 114.1,114.7 106.5,111.6 C102.6,109.9 98,109.5 98,110.8 C98,112.6 109.5,136 110.4,136 C111,136 112.9,133.4 114.5,130.3 C116.2,127.2 118.1,124.5 118.7,124.3 C120,123.8 122,129.9 122,134.1 C122,139.6 118.9,147.2 114.7,151.7 C108.9,158 103.9,160.3 96,160.4 C84.7,160.6 77.6,154.6 78.2,145.5 C78.4,142.3 79.1,141.1 81.9,139.3 C86.7,136.1 89.7,136.4 93.6,140.5 C95.4,142.4 97.1,144 97.4,144 C98.6,144 100.1,135.4 99.5,132.1 C98.6,127.2 95.4,122.2 92,120.5 C90.4,119.7 86.9,119 84.2,119 C78.5,119 75.4,120.9 72.5,126.4 C71.4,128.4 70.3,130 70,130 C69.7,130 68.5,127.6 67.2,124.6 C65.9,121.7 63.2,117.6 61.1,115.6 C57.4,111.9 46.4,106.6 44.7,107.7 C43.7,108.3 44.6,114.8 46.6,121.2 C47.4,123.7 49.9,128.3 52,131.4 C56.6,138 56.8,139 53.8,139 C49.9,139.1 43.4,142.6 40.8,146.1 C35.9,152.7 36.5,161.5 42.3,168.5 C45.3,172.2 51.8,175.9 55.3,176 C56.9,176 56.9,175.7 55,172 C52.8,167.7 52.4,162 54,158.9 C55.4,156.4 60.2,154 63.7,154 C75,154 77.9,174.5 67.8,183.6 C63.8,187.3 56.9,190.2 50.8,190.7 C45.7,191.2 44.2,190.9 38.6,188.1 C32.7,185.2 26,179.3 26,177 C26,175.7 35.5,175.7 39.8,176.9 C41.5,177.4 43,177.5 43,177.1 C43,174.5 26.4,154 24.3,154 C23.8,154 21.9,156.7 20.2,160 L17.2,166 L16.5,159.5 C16.1,155.9 16,151.9 16.2,150.5 C16.5,149.1 16.4,147.7 16,147.5 C15.3,147.1 7.3,152.7 1.3,157.6 C-0.6,159.3 -0.4,159.8 4.7,165.8 C7.9,169.6 9.4,172.1 9.2,173.6 C8.8,176.7 11.7,182.6 14.8,185 C16.1,186.1 18.7,187 20.5,187 C23.1,187 25,188.4 32.7,196.3 C37.6,201.3 42.2,206.5 42.9,207.7 C43.5,208.9 44.3,212.6 44.6,215.9 C45,219.1 45.5,222.2 45.9,222.8 C46.2,223.3 49.7,224.7 53.5,225.8 C57.4,227 61.9,228.8 63.5,229.9 C65.2,231 67,231.9 67.5,231.9 C68.1,232 71.4,228.9 74.8,225 Z M27.9,131.9 C33.2,121.2 42,108 51.5,96.9 C58.8,88.4 75.1,74 77.4,74 C78.9,74 94,89.6 94,91.1 C94,92.4 96.4,92.2 98.5,90.6 C100.3,89.3 100.1,88.9 94.7,82.2 C88.1,74.1 79.6,66 77.9,66 C75.4,66 61.8,77.5 51.5,88.1 C45.1,94.9 37.9,103.9 32.9,111.3 C25.2,122.8 18,136 18,138.6 C18,139.7 20,140.7 22.5,140.8 C23.1,140.8 25.5,136.8 27.9,131.9 Z M15.4,136.4 C16.1,134.5 14.4,132 12.5,132 C10.6,132 8.7,134.8 9.4,136.5 C10.1,138.5 14.6,138.4 15.4,136.4 Z M19.4,126.4 C21.5,125.6 21.5,120.4 19.4,119.6 C16.4,118.4 14,119.9 14,123 C14,126.4 16.1,127.7 19.4,126.4 Z M27.4,113.7 C28.6,112.8 29.1,111.4 28.8,109.5 C28.6,107.1 28,106.4 25.7,106.2 C20.3,105.6 18,110.5 22.2,113.4 C24.9,115.3 25.2,115.3 27.4,113.7 Z M36.8,99.8 C39.6,97 37.5,92 33.5,92 C30.8,92 29,93.8 29,96.5 C29,99.2 30.8,101 33.5,101 C34.7,101 36.1,100.5 36.8,99.8 Z M47.3,87.9 C48.9,85.3 47.3,81.1 44.4,80.4 C39.8,79.2 35.9,85.5 39.2,88.8 C40.9,90.5 46,89.9 47.3,87.9 Z M109.5,84.6 C109.5,83.6 108.7,82.2 107.7,81.6 C106.3,80.7 105.6,80.9 104.5,82.3 C102.6,85 103.7,87.2 106.9,86.8 C108.7,86.6 109.5,85.9 109.5,84.6 Z M119.8,80.5 C120,80.3 119.4,76.6 118.5,72.3 C117.6,67.9 117,62.1 117.2,59.4 L117.5,54.5 L126,52.7 C137.4,50.3 162.6,49.4 175.9,50.9 C181.6,51.6 190.3,53.1 195.1,54.4 L203.9,56.6 L204.9,53.8 C205.8,51.2 205.7,50.8 203.4,50 C189.8,44.8 152.5,42.4 132.5,45.4 C126.5,46.3 119.3,47.6 116.5,48.3 L111.5,49.6 L111.2,56.1 C110.9,61.8 113.3,80.1 114.6,82.2 C115,82.8 118.2,81.8 119.8,80.5 Z M57.5,76.5 C58.9,75.2 60,73.4 60,72.5 C60,70.4 56.4,67 54,67 C51.6,67 48,70.4 48,72.5 C48,74.3 52.4,79 54,79 C54.6,79 56.2,77.9 57.5,76.5 Z M104.6,78.2 C106.7,76.8 107.1,73.7 105.4,71.9 C102.4,68.6 98,70.1 98,74.5 C98,78.1 101.7,80.2 104.6,78.2 Z M72.6,65.5 C76,60.3 71.2,54.5 65.2,56.6 C58.8,58.9 60.6,68 67.5,68 C70.1,68 71.4,67.4 72.6,65.5 Z M100.5,66 C102.9,63.3 101.8,59.2 98.3,58.4 C93.5,57.1 89.8,61.9 92.6,65.9 C94.5,68.5 98.1,68.6 100.5,66 Z M94.6,54.5 C102,49.7 103,39.6 96.7,33.3 C93.9,30.4 92.2,29.6 88.2,29.2 C84.1,28.9 83,28.3 82.1,26.3 C80.3,22.4 80.7,22 86.5,22 C89.5,22 92,21.6 92,21.1 C92,18.8 85.9,6.9 85,7.5 C84.5,7.8 82.8,10.2 81.3,12.7 C78.8,17 78.6,17.1 77.3,15.4 C76.3,14 76.1,11.9 76.6,7.3 C76.9,3.9 76.9,0.7 76.6,0.1 C76.1,-0.7 63.1,4.6 61.3,6.3 C61.1,6.6 63.6,8.9 66.9,11.5 C70.3,14 73,16.6 73,17.2 C73,17.8 70.9,18 67,17.5 C62.8,17 61,17.1 61,17.9 C61,20 66.9,32 67.9,32 C68.4,32 70.1,30.2 71.7,28 C73.2,25.8 74.8,24 75.3,24 C75.7,24 76.8,25.6 77.7,27.5 C79.3,30.9 79.3,31.1 77.2,33.3 C68.7,42.3 76.3,58.1 88.3,56.6 C90.4,56.4 93.2,55.4 94.6,54.5 Z M209,43.9 C209,41.6 207.5,40.7 205,41.5 C202.5,42.3 202.4,45.6 204.7,46.9 C206.9,48.1 209,46.6 209,43.9 Z M120,42.8 C121.3,40.3 121.3,39.7 120,37.3 C116.4,30.8 107.5,34.6 108.9,42 C109.7,46.7 117.5,47.2 120,42.8 Z M196.8,41.1 C197.3,37.9 194.5,35.7 191.9,37.1 C190,38.1 189.3,42 190.7,43.4 C191.1,43.8 192.6,44 194,43.8 C195.8,43.6 196.6,42.8 196.8,41.1 Z M135.4,40.4 C139,36.9 136.3,31 131.1,31 C127.7,31 126,32.7 126,36.1 C126,39.5 128.4,42 131.5,42 C132.8,42 134.6,41.3 135.4,40.4 Z M181.8,40.8 C183.9,38.7 183.2,35.1 180.5,33.8 C178.3,32.8 177.6,32.9 175.8,34.8 C173.9,36.6 173.8,37.3 174.8,39.5 C176.1,42.2 179.7,42.9 181.8,40.8 Z M151.8,39.8 C152.5,39.1 153,37.4 153,36 C153,32.7 151.3,31 148,31 C143.5,31 141.7,34.7 144,39.1 C145.2,41.3 149.9,41.7 151.8,39.8 Z M166.6,38.5 C168.1,36.2 168.1,35.8 166.6,33.5 C164.7,30.6 162.4,30.3 159.8,32.7 C157.6,34.7 157.5,36.8 159.7,39.2 C162,41.7 164.7,41.5 166.6,38.5 Z" id="Shape">
				</path>
				<path d="M53.9,221.7 C50.7,221 50.1,220.3 49.2,216.7 C48.6,214.4 48.3,212.4 48.5,212.2 C48.6,212 50.6,212.4 52.9,213 C56.4,213.9 57,214.5 57.6,217.5 C58.5,222.2 58,222.7 53.9,221.7 Z" id="Path">
				</path>
				<path d="M72.5,213 C70.2,210.5 71.2,206.3 74.5,204.8 C79.3,202.6 83.3,209.6 79.4,213.4 C77.3,215.6 74.7,215.4 72.5,213 Z" id="Path">
				</path>
				<path d="M61.2,201.8 C58.5,199.1 60.9,193 64.6,193 C67.7,193 70,195.1 70,197.8 C70,201.3 68.4,203 65,203 C63.6,203 61.9,202.5 61.2,201.8 Z" id="Path">
				</path>
				<path d="M85.4,194.6 C75.1,190.1 83.1,173.6 96.2,172.3 C104.1,171.6 109.2,176.8 107,183.4 C105.7,187.5 100.7,192.4 95.8,194.4 C91.3,196.3 89.5,196.3 85.4,194.6 Z" id="Path">
				</path>
				<path d="M16.8,181.3 C12.5,176.4 12.2,172 16,172 C18.3,172 22,177.3 22,180.8 C22,183.5 19,183.8 16.8,181.3 Z" id="Path">
				</path>
				<path d="M118.7,181.2 C115.3,177.5 117.2,173 122,173 C125.4,173 127,174.7 127,178.2 C127,182.7 121.7,184.6 118.7,181.2 Z" id="Path">
				</path>
				<path d="M111.6,166.7 C109.6,163.7 110.6,160.1 113.8,159.3 C118.7,158.1 122.3,162.4 119.7,166.4 C117.5,169.7 113.6,169.9 111.6,166.7 Z" id="Path">
				</path>
				<path d="M139,164.2 L133.5,160.5 L133.8,154 C134.3,143.3 134.2,143.4 141.7,148.8 L148.2,153.5 L147.6,158.5 C147.3,161.3 147,164.5 147,165.8 C147,168.9 145.4,168.5 139,164.2 Z" id="Path">
				</path>
				<path d="M165.2,160.4 C160.2,157 165,149.3 170.5,151.8 C173.6,153.2 173.9,157.9 171.2,160.3 C168.9,162.4 168,162.4 165.2,160.4 Z" id="Path">
				</path>
				<path d="M181.8,147.4 C175.8,144.2 175.4,138.4 180.8,133 C186.7,127.1 194.9,125.5 200.8,129 C208.4,133.7 206.3,142.6 196.5,147.1 C191.7,149.3 185.5,149.5 181.8,147.4 Z" id="Path">
				</path>
				<path d="M159.2,144.8 C157.4,143 157.8,139.5 160,137.5 C164.4,133.5 170.7,140 166.9,144.6 C165.5,146.3 160.9,146.5 159.2,144.8 Z" id="Path">
				</path>
				<path d="M219.1,144.6 C215.3,140 221.6,133.5 226,137.5 C228.2,139.5 228.6,143 226.8,144.8 C225.1,146.5 220.5,146.3 219.1,144.6 Z" id="Path">
				</path>
				<path d="M240.6,131.8 L238.2,128.6 L240.1,124.8 C241.2,122.7 242.2,121 242.4,121 C242.6,121 243.9,122.6 245.4,124.4 C248,127.8 248,127.9 246.3,131.4 C245.4,133.4 244.3,135 243.9,135 C243.5,135 242,133.6 240.6,131.8 Z" id="Path">
				</path>
				<path d="M218.2,129.4 C215.2,127.3 215.3,123.5 218.5,121.4 C224,117.8 229.1,124 224.5,128.6 C221.7,131.4 221.2,131.5 218.2,129.4 Z" id="Path">
				</path>
				<path d="M117.7,118.4 C116.2,116.9 117,112.1 119,111 C122.3,109.3 125.2,111.4 124.8,115.3 C124.5,118 124.1,118.5 121.5,118.8 C119.8,119 118.1,118.8 117.7,118.4 Z" id="Path">
				</path>
				<path d="M235.2,81.1 C233.4,80 231.1,73.2 231.8,70.8 C232.5,68 235.2,69 237.4,73.1 C238.7,75.5 239.1,77.5 238.6,79.3 C237.9,82.2 237.3,82.5 235.2,81.1 Z" id="Path">
				</path>
				<path d="M83.1,51.7 C81.7,51.1 80.5,50 80.3,49.4 C80,48.5 88.1,44.3 95.8,41.3 C97.5,40.6 97.4,44.4 95.5,47.9 C94.7,49.5 92.7,51.3 90.9,51.9 C86.9,53.3 86.1,53.3 83.1,51.7 Z" id="Path">
				</path>
				<path d="M77.4,43.6 C76.8,41.9 79,36.8 80.6,36.3 C81.5,36 84,39.9 84,41.5 C84,41.8 82.6,42.7 81,43.5 C78.3,44.9 77.9,44.9 77.4,43.6 Z" id="Path">
				</path>
				<path d="M86.5,36.9 C85.6,35.2 85.1,33.6 85.4,33.3 C86.3,32.4 92.8,34 94,35.5 C94.9,36.6 94.6,37.2 92.1,38.4 C88.2,40.5 88.3,40.5 86.5,36.9 Z" id="Path">
				</path>
			</g>
		</g>
	</g>
</svg>
